<?xml version="1.0" encoding="utf-8"?>
<!-- Generator: Adobe Illustrator 23.0.0, SVG Export Plug-In . SVG Version: 6.00 Build 0)  -->
<svg version="1.1" xmlns="http://www.w3.org/2000/svg" xmlns:xlink="http://www.w3.org/1999/xlink" x="0px" y="0px"
	 viewBox="0 0 72 56"  xml:space="preserve">

<g id="Template" class="st0">
	<g class="st1">
		<path d="M52,2c1.1,0,2,0.9,2,2v48c0,1.1-0.9,2-2,2H20c-1.1,0-2-0.9-2-2V4c0-1.1,0.9-2,2-2H52 M52,0H20c-2.2,0-4,1.8-4,4v48
			c0,2.2,1.8,4,4,4h32c2.2,0,4-1.8,4-4V4C56,1.8,54.2,0,52,0L52,0z"/>
	</g>
	<g class="st1">
		<path d="M56,6c1.1,0,2,0.9,2,2v40c0,1.1-0.9,2-2,2H16c-1.1,0-2-0.9-2-2V8c0-1.1,0.9-2,2-2H56 M56,4H16c-2.2,0-4,1.8-4,4v40
			c0,2.2,1.8,4,4,4h40c2.2,0,4-1.8,4-4V8C60,5.8,58.2,4,56,4L56,4z"/>
	</g>
	<g class="st1">
		<path d="M60,10c1.1,0,2,0.9,2,2v32c0,1.1-0.9,2-2,2H12c-1.1,0-2-0.9-2-2V12c0-1.1,0.9-2,2-2H60 M60,8H12c-2.2,0-4,1.8-4,4v32
			c0,2.2,1.8,4,4,4h48c2.2,0,4-1.8,4-4V12C64,9.8,62.2,8,60,8L60,8z"/>
	</g>
	<g class="st1">
		<path d="M68,14c1.1,0,2,0.9,2,2v24c0,1.1-0.9,2-2,2H4c-1.1,0-2-0.9-2-2V16c0-1.1,0.9-2,2-2H68 M68,12H4c-2.2,0-4,1.8-4,4v24
			c0,2.2,1.8,4,4,4h64c2.2,0,4-1.8,4-4V16C72,13.8,70.2,12,68,12L68,12z"/>
	</g>
	<g class="st1">
		<path d="M36,2c14.3,0,26,11.7,26,26S50.3,54,36,54S10,42.3,10,28S21.7,2,36,2 M36,0C20.5,0,8,12.5,8,28s12.5,28,28,28
			s28-12.5,28-28S51.5,0,36,0L36,0z"/>
	</g>
</g>
<g id="Developers">
</g>
<g id="Domain_Name_Settings">
</g>
<g id="Email">
</g>
<g id="Signing_Up">
</g>
<g id="Privacy_and_Whois">
	<g>
		<circle class="st2" cx="28" cy="14.1" r="10.4"/>
	</g>
	<g>
		<path class="st2" d="M34.2,26.3C48.2,26.3,49,45,49,45H7c0,0,0.8-18.7,14.8-18.7H34.2z"/>
	</g>
	<path class="st6" d="M31,22c0.1-1.6,0.3-3.4,1.2-5.1c0.9-1.7,2.2-3.1,3.6-4c2.7-1.8,5.3-2.3,7.7-2.6c1.2-0.1,2.3-0.2,3.4-0.3
		c1.1,0,2.2,0,3.3,0c2.3,0.1,4.7,0.4,7.3,1.4c1.3,0.5,2.7,1.3,4.1,2.5c1.3,1.2,2.4,3,2.9,4.7c0.1,0.4,0.2,0.9,0.3,1.3
		c0,0.4,0.1,0.8,0.1,1.3c0.1,0.8-0.1,1.8-0.2,2.7c-0.4,1.9-1.4,3.5-2.5,4.7c-1.1,1.2-2.4,2-3.6,2.6c-1.2,0.6-2.4,1-3.6,1.4
		c-0.7,0.2-2.1,0.5-2.1,0.5l0,3.8c0,2.8-2.2,5-5,5s-5-2.2-5-5v-7.2c0-2.7,2.1-4.8,4.7-5l0.3,0l0,0c1.2,0,2.8-0.3,4.1-0.8
		c0.7-0.2,1.2-0.5,1.7-0.8c0.5-0.3,0.8-0.6,1-0.8c0.1-0.2,0.2-0.3,0.2-0.3c0,0,0-0.1,0-0.1c0,0,0-0.1,0-0.1c0-0.1,0-0.1,0-0.2
		c0,0,0-0.1,0-0.1c-0.1-0.1,0-0.1-0.1-0.2c-0.2-0.1-0.4-0.3-0.9-0.5c-1-0.4-2.5-0.7-4.1-0.8c-1.6-0.1-3.4-0.1-4.9,0.1
		c-1.5,0.2-2.8,0.6-3.4,1c-0.3,0.2-0.3,0.3-0.3,0.3c-0.1,0,0,0.2-0.1,0.5l-0.2,1.2c-0.5,2.7-3.2,4.4-5.8,3.8
		C32.5,26.5,30.9,24.4,31,22z"/>
	<circle class="st6" cx="48" cy="48" r="5"/>
</g>
<g id="Trade_Accounts">
</g>
<g id="Contact_Information">
</g>
</svg>
