<?xml version="1.0" encoding="utf-8"?>
<!-- Generator: Adobe Illustrator 23.0.6, SVG Export Plug-In . SVG Version: 6.00 Build 0)  -->
<svg version="1.1" xmlns="http://www.w3.org/2000/svg" xmlns:xlink="http://www.w3.org/1999/xlink" x="0px" y="0px"
	 viewBox="0 0 72 56"  xml:space="preserve">
<style type="text/css">

</style>
<g id="Template_Borders" class="st0">
</g>
<g id="home">
</g>
<g id="check">
</g>
<g id="domain-icon__x28_2_x29_">
</g>
<g id="shopping-cart">
</g>
<g id="shopping-cart-solid">
</g>
<g id="user">
</g>
<g id="search">
</g>
<g id="chevron-up">
</g>
<g id="chevron-down">
</g>
<g id="chevron-left">
</g>
<g id="chevron-right">
</g>
<g id="_x2B_">
</g>
<g id="x">
</g>
<g id="chevron-up_1_">
</g>
<g id="chevron-down_1_">
</g>
<g id="chevron-left_1_">
</g>
<g id="chevron-right_1_">
</g>
<g id="netistrar">
</g>
<g id="arrow-up">
</g>
<g id="arrow-down">
</g>
<g id="arrow-left">
</g>
<g id="arrow-right">
</g>
<g id="cog">
</g>
<g id="billing">
</g>
<g id="help">
</g>
<g id="help-circle">
</g>
<g id="envelope">
</g>
<g id="envelope-solid">
</g>
<g id="menu">
</g>
<g id="linkedin">
</g>
<g id="linkedin-alt">
</g>
<g id="twitter">
</g>
<g id="twitter-alt">
</g>
<g id="github">
</g>
<g id="github-alt">
</g>
<g id="facebook">
</g>
<g id="facebook-alt">
</g>
<g id="instagram">
</g>
<g id="instagram-alt">
</g>
<g id="special">
</g>
<g id="unavailable">
</g>
<g id="security">
</g>
<g id="unionjack">
</g>
<g id="tickbox">
</g>
<g id="_x2D_">
</g>
<g id="Dragon">
</g>
<g id="Dot">
</g>
<g id="Domains">
</g>
<g id="Shorter_Better">
</g>
<g id="_x2E_com_.uk">
</g>
<g id="Globe">
</g>
<g id="Youtube">
</g>
<g id="User_Round">
</g>
<g id="Alt_Menu">
</g>
<g id="Launch_Out">
</g>
<g id="Domain_Alt">
	<circle class="brand-fill" cx="12.4" cy="45.6" r="4.4"/>
	<path class="brand-fill" d="M34.2,18.6c-2.9,0-5.2,1.1-6.8,3.3c-1.6,2.2-2.4,5.3-2.4,9.2c0,8.2,3.1,12.3,9.2,12.3c2.6,0,5.7-0.6,9.4-1.9v6.5
		c-3,1.3-6.4,1.9-10.1,1.9c-5.4,0-9.5-1.6-12.3-4.9c-2.8-3.2-4.3-7.9-4.3-14c0-3.8,0.7-7.2,2.1-10.1c1.4-2.9,3.4-5.1,6-6.6
		c2.6-1.5,5.7-2.3,9.2-2.3c3.6,0,7.2,0.9,10.8,2.6l-2.5,6.3c-1.4-0.7-2.8-1.2-4.2-1.7C36.9,18.9,35.5,18.6,34.2,18.6z"/>
	<path class="brand-fill" d="M63.7,43.5C63.7,43.5,63.6,43.5,63.7,43.5c-3.2,0-5.5-1-7.1-3.1c-1.6-2.1-2.3-5.2-2.3-9.3c0-4.1,0.8-7.2,2.4-9.3
		c1.6-2.1,3.9-3.1,7-3.1v-6.5c-5.7,0-10,1.6-13,4.8c-3,3.2-4.5,7.9-4.5,14s1.5,10.8,4.5,14.1c3,3.3,7.4,4.9,13,4.9c0,0,0,0,0.1,0
		V43.5z"/>
</g>
</svg>
