<svg id="Layer_1" data-name="Layer 1" xmlns="http://www.w3.org/2000/svg" viewBox="0 0 297.1 58.19"><defs><style>.cls-1{fill:#004875;}</style></defs><title>Netistrar-004875-300</title><path class="cls-1" d="M53,5.14H44.23c-2,0-2.93,1.39-2.93,4.18V39.66l-24-33.79a1.54,1.54,0,0,0-1.32-.73H6.05C3.92,5.14,2.9,6.53,2.9,9.32v51A4.12,4.12,0,0,0,3,61.57c.15.29.51.44,1.17.44h7.92c1.54,0,2.56-.37,3-1a6,6,0,0,0,.59-3.22V25.81L40.79,61.57c.22.37.66.51,1.46.51h8.87c1.47,0,2.34-.36,2.56-1.1a12,12,0,0,0,.22-3.22V6.46C53.9,5.58,53.61,5.14,53,5.14Z" transform="translate(-2.9 -4.48)"/><path class="cls-1" d="M88.06,44.93a14.76,14.76,0,0,0,4.54-2.78c2.12-1.83,3.15-4.69,3.15-8.5q0-12.54-18.69-12.53c-7,0-12,1.61-15.24,4.83-3.08,3.37-4.69,8.5-4.69,15.54S58.74,53.88,62,57.39s8.43,5.28,15.46,5.28a88.45,88.45,0,0,0,12-.51c2.78-.44,4.17-1.91,4-4.47l-.15-3.52c-.29-1.61-1-2.35-2.34-2.27l-4.91.36c-2.57.22-5.13.3-7.48.3a24.91,24.91,0,0,1-5.49-.44,5.41,5.41,0,0,1-3.82-3.37l12.9-2.28C85.12,45.74,87,45.3,88.06,44.93ZM68.49,39.44c.14-3.45.8-5.79,2.05-7s3.66-1.76,7.18-1.76q6.82,0,6.82,3.07a2.65,2.65,0,0,1-1.47,2.64,21.28,21.28,0,0,1-4.47,1.1Z" transform="translate(-2.9 -4.48)"/><path class="cls-1" d="M122.06,54.61c0-1.54-1.17-2.35-3.59-2.35-.51,0-1.32.08-2.27.15a17.9,17.9,0,0,1-2.35.22c-1.9,0-3.08-.15-3.59-.51-.66-.44-1-1.54-1-3.23V31.38h9.17A2.13,2.13,0,0,0,120.81,29V24.27a2.13,2.13,0,0,0-2.41-2.42h-9.17V13.27a2.09,2.09,0,0,0-2.34-2.34h-3.66c-3.38,0-5.06,1.76-5.06,5.28V48.82c0,9.23,4.91,13.78,14.73,13.78a42.94,42.94,0,0,0,6-.37c2.27-.37,3.44-2,3.44-4.76a12.15,12.15,0,0,0-.07-1.4A4.54,4.54,0,0,1,122.06,54.61Z" transform="translate(-2.9 -4.48)"/><path class="cls-1" d="M133.93,62.08a2.06,2.06,0,0,0,2.35-2.34V23.83a2.07,2.07,0,0,0-2.35-2.35h-3.66q-5.06,0-5.06,5.28v33a2.09,2.09,0,0,0,2.35,2.34Z" transform="translate(-2.9 -4.48)"/><path class="cls-1" d="M130.71,4.48c-4.18,0-6.38,2.13-6.38,6.52,0,4.18,2.13,6.31,6.38,6.31S137,15.25,137,11,135,4.48,130.71,4.48Z" transform="translate(-2.9 -4.48)"/><path class="cls-1" d="M169,39.8c-2.12-1.1-6.08-2.34-11.72-3.59-4.18-1-6.38-1.9-6.38-3,0-1.54,2.35-2.27,7.11-2.27a69,69,0,0,1,8.65.44l2.78.36.73.15h.3a2,2,0,0,0,2.2-2.13c.07-1.39.07-2.27.07-2.56.07-3.15-1.83-5.13-5.79-5.79-.81-.15-4-.22-9.6-.22-11.73,0-17.66,4.18-17.66,12.68a9.66,9.66,0,0,0,3.08,7.55c1.39,1.24,3.81,2.41,7.18,3.44,2.64.66,5.35,1.39,8,2.13,4,1.1,6.08,2.12,6.08,3.07,0,1.76-2.42,2.64-7.33,2.64a76.34,76.34,0,0,1-9.45-.58L144,51.68c-.58-.08-.95-.08-1.17-.15a2,2,0,0,0-2.2,2.2c-.07,1.24-.07,1.68-.07,1.39v1.32c0,3.08,1.32,4.84,3.88,5.35a85.65,85.65,0,0,0,13.05.81q17.81,0,17.8-13.2C175.34,45.23,173.14,42.08,169,39.8Z" transform="translate(-2.9 -4.48)"/><path class="cls-1" d="M202.16,54.61c0-1.54-1.17-2.35-3.59-2.35-.51,0-1.32.08-2.27.15a17.76,17.76,0,0,1-2.35.22c-1.9,0-3.08-.15-3.59-.51-.66-.44-1-1.54-1-3.23V31.38h9.16A2.13,2.13,0,0,0,200.91,29V24.27a2.13,2.13,0,0,0-2.41-2.42h-9.16V13.27A2.1,2.1,0,0,0,187,10.93h-3.66c-3.37,0-5.13,1.76-5.13,5.28V48.82c0,9.23,5,13.78,14.8,13.78a42.94,42.94,0,0,0,6-.37c2.27-.37,3.44-2,3.44-4.76a12.15,12.15,0,0,0-.07-1.4A4.54,4.54,0,0,1,202.16,54.61Z" transform="translate(-2.9 -4.48)"/><path class="cls-1" d="M227.81,21.41a48,48,0,0,0-6.89-.37c-10.77,0-16.19,5-16.19,15.1v23.6a2.08,2.08,0,0,0,2.34,2.34h6.45a2.08,2.08,0,0,0,2.34-2.34V34.82c0-2.49,1.54-3.74,4.7-3.74h8.06c1.54.08,2.34-.73,2.42-2.34.07-.81.07-1.25.07-1.25V26.1C231.25,23.32,230.16,21.78,227.81,21.41Z" transform="translate(-2.9 -4.48)"/><path class="cls-1" d="M250.31,21.12c-5.86,0-9.09.07-9.82.14-4.47.59-6.74,2.27-6.67,5.06a29,29,0,0,0,.07,3.44c.22,1.4,1,2.13,2.2,2.13.15-.15.29-.15.37-.07l4-.44a84,84,0,0,1,9.23-.44,16.3,16.3,0,0,1,4.62.44,3.15,3.15,0,0,1,2.49,3.29c.07,0,.07,0,.15.08a28.4,28.4,0,0,1-5.79,1.39c-5.57,1-8.5,1.61-8.94,1.69-7.62,1.9-11.43,5.86-11.43,11.72,0,8.65,6.3,13,18.76,13A79.11,79.11,0,0,0,264,61.42q4-.77,4-4.61V36.36C268.19,26.17,262.18,21.12,250.31,21.12Zm6.81,31.36a40.75,40.75,0,0,1-6.81.44c-5.42,0-8.06-1.1-8.06-3.3,0-1.53.95-2.41,2.78-2.78l12-2.27v7.91Z" transform="translate(-2.9 -4.48)"/><path class="cls-1" d="M296.7,21.41a48.05,48.05,0,0,0-6.89-.37c-10.77,0-16.2,5-16.2,15.1v23.6A2.09,2.09,0,0,0,276,62.08h6.45a2.08,2.08,0,0,0,2.34-2.34V34.82c0-2.49,1.54-3.74,4.69-3.74h8.06c1.54.08,2.35-.73,2.42-2.34.08-.81.08-1.25.08-1.25V26.1C300.07,23.32,299,21.78,296.7,21.41Z" transform="translate(-2.9 -4.48)"/></svg>