<?xml version="1.0" encoding="utf-8"?>
<!-- Generator: Adobe Illustrator 23.0.0, SVG Export Plug-In . SVG Version: 6.00 Build 0)  -->
<svg version="1.1" xmlns="http://www.w3.org/2000/svg" xmlns:xlink="http://www.w3.org/1999/xlink" x="0px" y="0px"
	 viewBox="0 0 72 56"  xml:space="preserve">

<g id="Template" class="st0">
	<g class="st1">
		<path d="M52,2c1.1,0,2,0.9,2,2v48c0,1.1-0.9,2-2,2H20c-1.1,0-2-0.9-2-2V4c0-1.1,0.9-2,2-2H52 M52,0H20c-2.2,0-4,1.8-4,4v48
			c0,2.2,1.8,4,4,4h32c2.2,0,4-1.8,4-4V4C56,1.8,54.2,0,52,0L52,0z"/>
	</g>
	<g class="st1">
		<path d="M56,6c1.1,0,2,0.9,2,2v40c0,1.1-0.9,2-2,2H16c-1.1,0-2-0.9-2-2V8c0-1.1,0.9-2,2-2H56 M56,4H16c-2.2,0-4,1.8-4,4v40
			c0,2.2,1.8,4,4,4h40c2.2,0,4-1.8,4-4V8C60,5.8,58.2,4,56,4L56,4z"/>
	</g>
	<g class="st1">
		<path d="M60,10c1.1,0,2,0.9,2,2v32c0,1.1-0.9,2-2,2H12c-1.1,0-2-0.9-2-2V12c0-1.1,0.9-2,2-2H60 M60,8H12c-2.2,0-4,1.8-4,4v32
			c0,2.2,1.8,4,4,4h48c2.2,0,4-1.8,4-4V12C64,9.8,62.2,8,60,8L60,8z"/>
	</g>
	<g class="st1">
		<path d="M68,14c1.1,0,2,0.9,2,2v24c0,1.1-0.9,2-2,2H4c-1.1,0-2-0.9-2-2V16c0-1.1,0.9-2,2-2H68 M68,12H4c-2.2,0-4,1.8-4,4v24
			c0,2.2,1.8,4,4,4h64c2.2,0,4-1.8,4-4V16C72,13.8,70.2,12,68,12L68,12z"/>
	</g>
	<g class="st1">
		<path d="M36,2c14.3,0,26,11.7,26,26S50.3,54,36,54S10,42.3,10,28S21.7,2,36,2 M36,0C20.5,0,8,12.5,8,28s12.5,28,28,28
			s28-12.5,28-28S51.5,0,36,0L36,0z"/>
	</g>
</g>
<g id="Developers">
</g>
<g id="Domain_Name_Settings">
</g>
<g id="Email">
	<path class="st2" d="M25.8,3.6H46c2.5,0,4.5,2,4.5,4.5v39.5c0,2.5-2,4.5-4.5,4.5H25.8c-2.5,0-4.5-2-4.5-4.5V8.1
		C21.3,5.6,23.3,3.6,25.8,3.6z"/>
	<path class="st3" d="M27.4,5.8h17c2.1,0,3.7,1.6,3.7,3.6v30.1c0,2-1.7,3.6-3.7,3.6h-17c-2.1,0-3.7-1.6-3.7-3.6V9.4
		C23.6,7.4,25.3,5.8,27.4,5.8z"/>
	<circle class="st4" cx="36" cy="47.5" r="2.2"/>
	<rect x="27.1" y="18.3" class="st7" width="17.8" height="12.3"/>
	<path class="st7" d="M27.1,18.3l7.8,7.8c0.6,0.6,1.6,0.6,2.2,0l7.8-7.8"/>
	<path class="st8" d="M36.7,35l-0.1-1.1c0-0.3-0.2-0.5-0.5-0.5c-0.3,0-0.6,0.2-0.6,0.5L35.4,35l-0.5,5.6h2.2L36.7,35z"/>
	<path class="st8" d="M41.5,34.4l-0.7-0.9c-0.2-0.2-0.5-0.3-0.7-0.2c-0.3,0.1-0.4,0.5-0.3,0.8l0.5,1l2.3,4.4h2.2L41.5,34.4z"/>
	<path class="st8" d="M30.5,34.4l0.7-0.9c0.2-0.2,0.5-0.3,0.7-0.2c0.3,0.1,0.4,0.5,0.3,0.8l-0.5,1l-2.3,4.4h-2.2L30.5,34.4z"/>
	<path class="st8" d="M36.7,13.9L36.6,15c0,0.3-0.2,0.5-0.5,0.5c-0.3,0-0.6-0.2-0.6-0.5l-0.1-1.1l-0.5-5.6h2.2L36.7,13.9z"/>
	<path class="st8" d="M41.5,14.5l-0.7,0.9c-0.2,0.2-0.5,0.3-0.7,0.2c-0.3-0.1-0.4-0.5-0.3-0.8l0.5-1l2.3-4.4h2.2L41.5,14.5z"/>
	<path class="st8" d="M30.5,14.5l0.7,0.9c0.2,0.2,0.5,0.3,0.7,0.2c0.3-0.1,0.4-0.5,0.3-0.8l-0.5-1l-2.3-4.4h-2.2L30.5,14.5z"/>
</g>
<g id="Signing_Up">
</g>
<g id="Privacy_and_Whois">
</g>
<g id="Trade_Accounts">
</g>
<g id="Contact_Information">
</g>
</svg>
