<?xml version="1.0" encoding="utf-8"?>
<!-- Generator: Adobe Illustrator 23.0.0, SVG Export Plug-In . SVG Version: 6.00 Build 0)  -->
<svg version="1.1" xmlns="http://www.w3.org/2000/svg" xmlns:xlink="http://www.w3.org/1999/xlink" x="0px" y="0px"
	 viewBox="0 0 72 56" xml:space="preserve">
<style type="text/css">
	.st0{display:none;}
	.st1{display:inline;opacity:0.25;}
	.st2{fill:#014A75;}
	.st3{fill:#FFFFFF;}
	.st4{fill:#027AC1;}
	.st5{fill:none;stroke:#000000;stroke-miterlimit:10;}
	.st6{fill:#6C8F2E;}
	.st7{fill:none;stroke:#6C8F2E;stroke-width:2;stroke-linejoin:round;stroke-miterlimit:10;}
	.st8{fill:#6C8F2E;stroke:#6C8F2E;stroke-miterlimit:10;}
</style>
<g id="Template" class="st0">
	<g class="st1">
		<path d="M52,2c1.1,0,2,0.9,2,2v48c0,1.1-0.9,2-2,2H20c-1.1,0-2-0.9-2-2V4c0-1.1,0.9-2,2-2H52 M52,0H20c-2.2,0-4,1.8-4,4v48
			c0,2.2,1.8,4,4,4h32c2.2,0,4-1.8,4-4V4C56,1.8,54.2,0,52,0L52,0z"/>
	</g>
	<g class="st1">
		<path d="M56,6c1.1,0,2,0.9,2,2v40c0,1.1-0.9,2-2,2H16c-1.1,0-2-0.9-2-2V8c0-1.1,0.9-2,2-2H56 M56,4H16c-2.2,0-4,1.8-4,4v40
			c0,2.2,1.8,4,4,4h40c2.2,0,4-1.8,4-4V8C60,5.8,58.2,4,56,4L56,4z"/>
	</g>
	<g class="st1">
		<path d="M60,10c1.1,0,2,0.9,2,2v32c0,1.1-0.9,2-2,2H12c-1.1,0-2-0.9-2-2V12c0-1.1,0.9-2,2-2H60 M60,8H12c-2.2,0-4,1.8-4,4v32
			c0,2.2,1.8,4,4,4h48c2.2,0,4-1.8,4-4V12C64,9.8,62.2,8,60,8L60,8z"/>
	</g>
	<g class="st1">
		<path d="M68,14c1.1,0,2,0.9,2,2v24c0,1.1-0.9,2-2,2H4c-1.1,0-2-0.9-2-2V16c0-1.1,0.9-2,2-2H68 M68,12H4c-2.2,0-4,1.8-4,4v24
			c0,2.2,1.8,4,4,4h64c2.2,0,4-1.8,4-4V16C72,13.8,70.2,12,68,12L68,12z"/>
	</g>
	<g class="st1">
		<path d="M36,2c14.3,0,26,11.7,26,26S50.3,54,36,54S10,42.3,10,28S21.7,2,36,2 M36,0C20.5,0,8,12.5,8,28s12.5,28,28,28
			s28-12.5,28-28S51.5,0,36,0L36,0z"/>
	</g>
</g>
<g id="Developers">
</g>
<g id="Domain_Name_Settings">
</g>
<g id="Email">
</g>
<g id="Signing_Up">
</g>
<g id="Privacy_and_Whois">
</g>
<g id="Trade_Accounts">
</g>
<g id="Contact_Information">
	<path class="st6" d="M44,3.7c-8.5,0-15.3,6.9-15.3,15.3c0,4,1.6,7.7,4.1,10.4c-1.8,3.9-5.7,4.2-2.8,4.5c3.6,0.5,6.1-1.8,6.1-1.8
		l0,0c2.3,1.4,5,2.2,7.9,2.2c8.5,0,15.3-6.9,15.3-15.3C59.3,10.5,52.5,3.7,44,3.7z"/>
	<path class="st2" d="M20.6,30c0,0-0.6,0.5-0.3,1c0.2,0.5,2.8,6.5,10.8,11.1c0,0,1.1,0.9,1.8,0.2c0.7-0.7,3.2-3.2,3.2-3.2
		s1.3-1.3,2.5-0.3c1.2,1,5.7,5.6,5.7,5.6s1.6,1.4,0,3.1c-1.6,1.7-3.8,3.9-3.8,3.9s-1.4,1.7-5.8,0.4s-9.9-3.2-16.9-11.2
		s-7-12.8-7.2-15.5s1.7-4,3.5-5.6s2.9-2.4,4.4-0.9c1.4,1.4,3.8,3.9,5.2,5.2c1.3,1.3,0.2,3-0.3,3.6C22.8,28,20.6,30,20.6,30z"/>
	<path class="st3" d="M46.5,18.3c0,0-0.5,3-1.2,6.4c-0.6,3.3,1.8,1.1,2.4,1.1c0.6,0,0.9,0.6,0,1.4c-0.9,0.8-1.8,1.4-3.9,1.4
		s-3.6-1.3-3.2-4.1c0.5-2.8,0.8-4.8,1-6.4c0.2-1.5-0.7-0.9-1.4-1.2c-0.7-0.2-1.2-1.3,0.2-1.4c1.4-0.1,4.4,0,5.4,0
		S46.7,17.3,46.5,18.3z"/>
	<circle class="st3" cx="44.7" cy="12" r="2.6"/>
</g>
</svg>
